<?xml version="1.0" encoding="UTF-8" standalone="no"?>
<!-- Created with Inkscape (http://www.inkscape.org/) -->

<svg
   xmlns:dc="http://purl.org/dc/elements/1.1/"
   xmlns:cc="http://creativecommons.org/ns#"
   xmlns:rdf="http://www.w3.org/1999/02/22-rdf-syntax-ns#"
   xmlns:svg="http://www.w3.org/2000/svg"
   xmlns="http://www.w3.org/2000/svg"
   xmlns:sodipodi="http://sodipodi.sourceforge.net/DTD/sodipodi-0.dtd"
   xmlns:inkscape="http://www.inkscape.org/namespaces/inkscape"
   width="744.09448819"
   height="1052.3622047"
   id="svg2"
   version="1.1"
   inkscape:version="0.91 r13725"
   sodipodi:docname="Buttons.svg">
  <defs
     id="defs4" />
  <sodipodi:namedview
     id="base"
     pagecolor="#ffffff"
     bordercolor="#666666"
     borderopacity="1.0"
     inkscape:pageopacity="0.0"
     inkscape:pageshadow="2"
     inkscape:zoom="5.6"
     inkscape:cx="439.63206"
     inkscape:cy="543.73846"
     inkscape:document-units="px"
     inkscape:current-layer="layer1"
     showgrid="false"
     inkscape:window-width="1680"
     inkscape:window-height="988"
     inkscape:window-x="-8"
     inkscape:window-y="-8"
     inkscape:window-maximized="1" />
  <metadata
     id="metadata7">
    <rdf:RDF>
      <cc:Work
         rdf:about="">
        <dc:format>image/svg+xml</dc:format>
        <dc:type
           rdf:resource="http://purl.org/dc/dcmitype/StillImage" />
        <dc:title></dc:title>
      </cc:Work>
    </rdf:RDF>
  </metadata>
  <g
     inkscape:label="Layer 1"
     inkscape:groupmode="layer"
     id="layer1">
    <g
       id="g3072"
       transform="translate(218.20184,-6.7191815)"
       inkscape:export-filename="H:\Eigene Dateien\Programming\LD34\android\assets\ButtonCursor.png"
       inkscape:export-xdpi="36.517086"
       inkscape:export-ydpi="36.517086">
      <path
         style="fill:#ff0000;stroke:#000000;stroke-width:1.5;stroke-linejoin:round;stroke-miterlimit:4;stroke-dasharray:none;stroke-dashoffset:0;stroke-opacity:1"
         d="m 238.72656,465.4707 a 38.683468,38.683468 0 0 0 -38.68359,38.6836 38.683468,38.683468 0 0 0 38.68359,38.68359 38.683468,38.683468 0 0 0 38.6836,-38.68359 38.683468,38.683468 0 0 0 -38.6836,-38.6836 z m -6.42773,28.32618 a 3.9285715,3.9285715 0 0 1 3.92773,3.92773 3.9285715,3.9285715 0 0 1 -3.92773,3.92969 3.9285715,3.9285715 0 0 1 -3.92969,-3.92969 3.9285715,3.9285715 0 0 1 3.92969,-3.92773 z m 12.85547,0 a 3.9285715,3.9285715 0 0 1 3.92968,3.92773 3.9285715,3.9285715 0 0 1 -3.92968,3.92969 3.9285715,3.9285715 0 0 1 -3.92774,-3.92969 3.9285715,3.9285715 0 0 1 3.92774,-3.92773 z m -12.85547,12.85742 a 3.9285715,3.9285715 0 0 1 3.92773,3.92773 3.9285715,3.9285715 0 0 1 -3.92773,3.92969 3.9285715,3.9285715 0 0 1 -3.92969,-3.92969 3.9285715,3.9285715 0 0 1 3.92969,-3.92773 z m 12.85547,0 a 3.9285715,3.9285715 0 0 1 3.92968,3.92773 3.9285715,3.9285715 0 0 1 -3.92968,3.92969 3.9285715,3.9285715 0 0 1 -3.92774,-3.92969 3.9285715,3.9285715 0 0 1 3.92774,-3.92773 z"
         id="path3023"
         transform="translate(22.223356,3.0304576)"
         inkscape:connector-curvature="0" />
      <circle
         transform="translate(-10.121504,1.6080032)"
         id="path2987"
         style="fill:none;stroke:#000000;stroke-width:1.5;stroke-linejoin:round;stroke-miterlimit:4;stroke-dasharray:none;stroke-dashoffset:0;stroke-opacity:1"
         cx="271.07144"
         cy="505.57648"
         r="34.642857" />
    </g>
    <path
       style="fill:#008080;stroke:#000000;stroke-width:1.5;stroke-linejoin:round;stroke-miterlimit:4;stroke-dasharray:none;stroke-dashoffset:0;stroke-opacity:1"
       d="M 393.02734 459.15625 A 38.683468 38.683468 0 0 0 354.34375 497.83984 A 38.683468 38.683468 0 0 0 393.02734 536.52344 A 38.683468 38.683468 0 0 0 431.71094 497.83984 A 38.683468 38.683468 0 0 0 393.02734 459.15625 z M 386.59961 487.48438 A 3.9285715 3.9285715 0 0 1 390.52734 491.41211 A 3.9285715 3.9285715 0 0 1 386.59961 495.33984 A 3.9285715 3.9285715 0 0 1 382.66992 491.41211 A 3.9285715 3.9285715 0 0 1 386.59961 487.48438 z M 399.45508 487.48438 A 3.9285715 3.9285715 0 0 1 403.38477 491.41211 A 3.9285715 3.9285715 0 0 1 399.45508 495.33984 A 3.9285715 3.9285715 0 0 1 395.52734 491.41211 A 3.9285715 3.9285715 0 0 1 399.45508 487.48438 z M 386.59961 500.33984 A 3.9285715 3.9285715 0 0 1 390.52734 504.26953 A 3.9285715 3.9285715 0 0 1 386.59961 508.19727 A 3.9285715 3.9285715 0 0 1 382.66992 504.26953 A 3.9285715 3.9285715 0 0 1 386.59961 500.33984 z M 399.45508 500.33984 A 3.9285715 3.9285715 0 0 1 403.38477 504.26953 A 3.9285715 3.9285715 0 0 1 399.45508 508.19727 A 3.9285715 3.9285715 0 0 1 395.52734 504.26953 A 3.9285715 3.9285715 0 0 1 399.45508 500.33984 z "
       id="path3060"
       inkscape:export-filename="H:\Eigene Dateien\Programming\LD34\android\assets\ButtonBlue.png"
       inkscape:export-xdpi="57"
       inkscape:export-ydpi="57" />
    <circle
       r="34.642857"
       cy="497.84058"
       cx="393.02737"
       id="path3070"
       style="fill:none;stroke:#000000;stroke-width:1.5;stroke-linejoin:round;stroke-miterlimit:4;stroke-dasharray:none;stroke-dashoffset:0;stroke-opacity:1" />
  </g>
</svg>
