<?xml version="1.0" encoding="UTF-8" standalone="no"?>
<!-- Created with Inkscape (http://www.inkscape.org/) -->

<svg
   xmlns:dc="http://purl.org/dc/elements/1.1/"
   xmlns:cc="http://creativecommons.org/ns#"
   xmlns:rdf="http://www.w3.org/1999/02/22-rdf-syntax-ns#"
   xmlns:svg="http://www.w3.org/2000/svg"
   xmlns="http://www.w3.org/2000/svg"
   xmlns:sodipodi="http://sodipodi.sourceforge.net/DTD/sodipodi-0.dtd"
   xmlns:inkscape="http://www.inkscape.org/namespaces/inkscape"
   width="744.09448819"
   height="1052.3622047"
   id="svg2"
   version="1.1"
   inkscape:version="0.48.4 r9939"
   sodipodi:docname="drawing.svg">
  <defs
     id="defs4" />
  <sodipodi:namedview
     id="base"
     pagecolor="#ffffff"
     bordercolor="#666666"
     borderopacity="1.0"
     inkscape:pageopacity="0.0"
     inkscape:pageshadow="2"
     inkscape:zoom="0.7"
     inkscape:cx="302.86644"
     inkscape:cy="540.20305"
     inkscape:document-units="px"
     inkscape:current-layer="layer1"
     showgrid="false"
     inkscape:window-width="1366"
     inkscape:window-height="719"
     inkscape:window-x="0"
     inkscape:window-y="0"
     inkscape:window-maximized="1" />
  <metadata
     id="metadata7">
    <rdf:RDF>
      <cc:Work
         rdf:about="">
        <dc:format>image/svg+xml</dc:format>
        <dc:type
           rdf:resource="http://purl.org/dc/dcmitype/StillImage" />
        <dc:title></dc:title>
      </cc:Work>
    </rdf:RDF>
  </metadata>
  <g
     inkscape:label="Layer 1"
     inkscape:groupmode="layer"
     id="layer1">
    <g
       id="g3072"
       transform="translate(-22.223356,-3.0304576)"
       inkscape:export-filename="/home/stephanw/Java/LudumDare/LD34/android/assets/ButtonRed.png"
       inkscape:export-xdpi="57.061382"
       inkscape:export-ydpi="57.061382">
      <path
         sodipodi:type="arc"
         style="fill:#ff0000;stroke:#000000;stroke-width:1.34332025;stroke-linejoin:round;stroke-miterlimit:4;stroke-opacity:1;stroke-dasharray:none;stroke-dashoffset:0"
         id="path3023"
         sodipodi:cx="271.07144"
         sodipodi:cy="505.57648"
         sodipodi:rx="34.642857"
         sodipodi:ry="34.642857"
         d="m 305.7143,505.57648 c 0,19.13272 -15.51014,34.64285 -34.64286,34.64285 -19.13272,0 -34.64285,-15.51013 -34.64285,-34.64285 0,-19.13272 15.51013,-34.64286 34.64285,-34.64286 19.13272,0 34.64286,15.51014 34.64286,34.64286 z"
         transform="matrix(1.1166362,0,0,1.1166362,-41.738239,-57.360501)" />
      <path
         transform="translate(-118.69292,-17.67767)"
         d="m 377.14287,518.43359 c 0,2.16969 -1.75889,3.92858 -3.92858,3.92858 -2.16969,0 -3.92857,-1.75889 -3.92857,-3.92858 0,-2.16969 1.75888,-3.92857 3.92857,-3.92857 2.16969,0 3.92858,1.75888 3.92858,3.92857 z"
         sodipodi:ry="3.9285715"
         sodipodi:rx="3.9285715"
         sodipodi:cy="518.43359"
         sodipodi:cx="373.21429"
         id="path2991"
         style="fill:#ffffff;stroke:#000000;stroke-width:1.5;stroke-linejoin:round;stroke-miterlimit:4;stroke-opacity:1;stroke-dasharray:none;stroke-dashoffset:0"
         sodipodi:type="arc" />
      <path
         transform="translate(-105.83578,-17.67767)"
         sodipodi:type="arc"
         style="fill:#ffffff;stroke:#000000;stroke-width:1.5;stroke-linejoin:round;stroke-miterlimit:4;stroke-opacity:1;stroke-dasharray:none;stroke-dashoffset:0"
         id="path2997"
         sodipodi:cx="373.21429"
         sodipodi:cy="518.43359"
         sodipodi:rx="3.9285715"
         sodipodi:ry="3.9285715"
         d="m 377.14287,518.43359 c 0,2.16969 -1.75889,3.92858 -3.92858,3.92858 -2.16969,0 -3.92857,-1.75889 -3.92857,-3.92858 0,-2.16969 1.75888,-3.92857 3.92857,-3.92857 2.16969,0 3.92858,1.75888 3.92858,3.92857 z" />
      <path
         transform="matrix(0,-1,1,0,-263.91222,886.82736)"
         sodipodi:type="arc"
         style="fill:#ffffff;stroke:#000000;stroke-width:1.5;stroke-linejoin:round;stroke-miterlimit:4;stroke-opacity:1;stroke-dasharray:none;stroke-dashoffset:0"
         id="path3009"
         sodipodi:cx="373.21429"
         sodipodi:cy="518.43359"
         sodipodi:rx="3.9285715"
         sodipodi:ry="3.9285715"
         d="m 377.14287,518.43359 c 0,2.16969 -1.75889,3.92858 -3.92858,3.92858 -2.16969,0 -3.92857,-1.75889 -3.92857,-3.92858 0,-2.16969 1.75888,-3.92857 3.92857,-3.92857 2.16969,0 3.92858,1.75888 3.92858,3.92857 z" />
      <path
         d="m 377.14287,518.43359 c 0,2.16969 -1.75889,3.92858 -3.92858,3.92858 -2.16969,0 -3.92857,-1.75889 -3.92857,-3.92858 0,-2.16969 1.75888,-3.92857 3.92857,-3.92857 2.16969,0 3.92858,1.75888 3.92858,3.92857 z"
         sodipodi:ry="3.9285715"
         sodipodi:rx="3.9285715"
         sodipodi:cy="518.43359"
         sodipodi:cx="373.21429"
         id="path3011"
         style="fill:#ffffff;stroke:#000000;stroke-width:1.5;stroke-linejoin:round;stroke-miterlimit:4;stroke-opacity:1;stroke-dasharray:none;stroke-dashoffset:0"
         sodipodi:type="arc"
         transform="matrix(0,-1,1,0,-251.05508,886.82736)" />
      <path
         transform="translate(-10.121504,1.6080032)"
         d="m 305.7143,505.57648 c 0,19.13272 -15.51014,34.64285 -34.64286,34.64285 -19.13272,0 -34.64285,-15.51013 -34.64285,-34.64285 0,-19.13272 15.51013,-34.64286 34.64285,-34.64286 19.13272,0 34.64286,15.51014 34.64286,34.64286 z"
         sodipodi:ry="34.642857"
         sodipodi:rx="34.642857"
         sodipodi:cy="505.57648"
         sodipodi:cx="271.07144"
         id="path2987"
         style="fill:none;stroke:#000000;stroke-width:1.5;stroke-linejoin:round;stroke-miterlimit:4;stroke-opacity:1;stroke-dasharray:none;stroke-dashoffset:0"
         sodipodi:type="arc" />
    </g>
    <g
       id="g3080"
       transform="translate(19.697966,-9.5964498)"
       inkscape:export-filename="/home/stephanw/Java/LudumDare/LD34/android/assets/ButtonBlue.png"
       inkscape:export-xdpi="57.061382"
       inkscape:export-ydpi="57.061382">
      <path
         transform="matrix(1.1166362,0,0,1.1166362,70.641232,-57.107963)"
         d="m 305.7143,505.57648 c 0,19.13272 -15.51014,34.64285 -34.64286,34.64285 -19.13272,0 -34.64285,-15.51013 -34.64285,-34.64285 0,-19.13272 15.51013,-34.64286 34.64285,-34.64286 19.13272,0 34.64286,15.51014 34.64286,34.64286 z"
         sodipodi:ry="34.642857"
         sodipodi:rx="34.642857"
         sodipodi:cy="505.57648"
         sodipodi:cx="271.07144"
         id="path3060"
         style="fill:#008080;stroke:#000000;stroke-width:1.34332025;stroke-linejoin:round;stroke-miterlimit:4;stroke-opacity:1;stroke-dasharray:none;stroke-dashoffset:0"
         sodipodi:type="arc" />
      <path
         sodipodi:type="arc"
         style="fill:#ffffff;stroke:#000000;stroke-width:1.5;stroke-linejoin:round;stroke-miterlimit:4;stroke-opacity:1;stroke-dasharray:none;stroke-dashoffset:0"
         id="path3062"
         sodipodi:cx="373.21429"
         sodipodi:cy="518.43359"
         sodipodi:rx="3.9285715"
         sodipodi:ry="3.9285715"
         d="m 377.14287,518.43359 c 0,2.16969 -1.75889,3.92858 -3.92858,3.92858 -2.16969,0 -3.92857,-1.75889 -3.92857,-3.92858 0,-2.16969 1.75888,-3.92857 3.92857,-3.92857 2.16969,0 3.92858,1.75888 3.92858,3.92857 z"
         transform="translate(-6.3134492,-17.425132)" />
      <path
         d="m 377.14287,518.43359 c 0,2.16969 -1.75889,3.92858 -3.92858,3.92858 -2.16969,0 -3.92857,-1.75889 -3.92857,-3.92858 0,-2.16969 1.75888,-3.92857 3.92857,-3.92857 2.16969,0 3.92858,1.75888 3.92858,3.92857 z"
         sodipodi:ry="3.9285715"
         sodipodi:rx="3.9285715"
         sodipodi:cy="518.43359"
         sodipodi:cx="373.21429"
         id="path3064"
         style="fill:#ffffff;stroke:#000000;stroke-width:1.5;stroke-linejoin:round;stroke-miterlimit:4;stroke-opacity:1;stroke-dasharray:none;stroke-dashoffset:0"
         sodipodi:type="arc"
         transform="translate(6.5436908,-17.425132)" />
      <path
         d="m 377.14287,518.43359 c 0,2.16969 -1.75889,3.92858 -3.92858,3.92858 -2.16969,0 -3.92857,-1.75889 -3.92857,-3.92858 0,-2.16969 1.75888,-3.92857 3.92857,-3.92857 2.16969,0 3.92858,1.75888 3.92858,3.92857 z"
         sodipodi:ry="3.9285715"
         sodipodi:rx="3.9285715"
         sodipodi:cy="518.43359"
         sodipodi:cx="373.21429"
         id="path3066"
         style="fill:#ffffff;stroke:#000000;stroke-width:1.5;stroke-linejoin:round;stroke-miterlimit:4;stroke-opacity:1;stroke-dasharray:none;stroke-dashoffset:0"
         sodipodi:type="arc"
         transform="matrix(0,-1,1,0,-151.53275,887.0799)" />
      <path
         transform="matrix(0,-1,1,0,-138.67561,887.0799)"
         sodipodi:type="arc"
         style="fill:#ffffff;stroke:#000000;stroke-width:1.5;stroke-linejoin:round;stroke-miterlimit:4;stroke-opacity:1;stroke-dasharray:none;stroke-dashoffset:0"
         id="path3068"
         sodipodi:cx="373.21429"
         sodipodi:cy="518.43359"
         sodipodi:rx="3.9285715"
         sodipodi:ry="3.9285715"
         d="m 377.14287,518.43359 c 0,2.16969 -1.75889,3.92858 -3.92858,3.92858 -2.16969,0 -3.92857,-1.75889 -3.92857,-3.92858 0,-2.16969 1.75888,-3.92857 3.92857,-3.92857 2.16969,0 3.92858,1.75888 3.92858,3.92857 z" />
      <path
         sodipodi:type="arc"
         style="fill:none;stroke:#000000;stroke-width:1.5;stroke-linejoin:round;stroke-miterlimit:4;stroke-opacity:1;stroke-dasharray:none;stroke-dashoffset:0"
         id="path3070"
         sodipodi:cx="271.07144"
         sodipodi:cy="505.57648"
         sodipodi:rx="34.642857"
         sodipodi:ry="34.642857"
         d="m 305.7143,505.57648 c 0,19.13272 -15.51014,34.64285 -34.64286,34.64285 -19.13272,0 -34.64285,-15.51013 -34.64285,-34.64285 0,-19.13272 15.51013,-34.64286 34.64285,-34.64286 19.13272,0 34.64286,15.51014 34.64286,34.64286 z"
         transform="translate(102.25797,1.8605413)" />
    </g>
  </g>
</svg>
